<svg width="287" height="128" viewBox="0 0 287 128" fill="none" xmlns="http://www.w3.org/2000/svg">
<path d="M286.5 64C286.5 72.6745 282.56 80.9756 275.36 88.5676C268.158 96.1623 257.712 103.024 244.766 108.798C218.876 120.345 183.073 127.5 143.5 127.5C103.927 127.5 68.1244 120.345 42.2338 108.798C29.2879 103.024 18.8422 96.1623 11.6397 88.5676C4.43971 80.9756 0.5 72.6745 0.5 64C0.5 55.3255 4.43971 47.0244 11.6397 39.4324C18.8422 31.8377 29.2879 24.9756 42.2338 19.2018C68.1244 7.65479 103.927 0.5 143.5 0.5C183.073 0.5 218.876 7.65479 244.766 19.2018C257.712 24.9756 268.158 31.8377 275.36 39.4324C282.56 47.0244 286.5 55.3255 286.5 64Z" fill="white" stroke="black"/>
<path d="M58.4177 19.9396H101.509C110.003 19.9396 116.854 21.0918 122.062 23.3962C127.312 25.7005 131.644 29.0077 135.059 33.3177C138.474 37.6276 140.95 42.6417 142.486 48.3599C144.023 54.0781 144.791 60.1377 144.791 66.5387C144.791 76.5668 143.639 84.3547 141.334 89.9022C139.072 95.407 135.913 100.037 131.858 103.792C127.803 107.505 123.449 109.98 118.796 111.217C112.436 112.924 106.673 113.778 101.509 113.778H58.4177V19.9396ZM87.4224 41.1908V92.4626H94.5295C100.591 92.4626 104.902 91.8011 107.463 90.4783C110.024 89.1127 112.03 86.7657 113.482 83.4372C114.933 80.066 115.659 74.6252 115.659 67.1148C115.659 57.1719 114.037 50.3656 110.793 46.6957C107.549 43.0258 102.17 41.1908 94.6576 41.1908H87.4224Z" fill="black"/>
<path d="M199.151 19.9396H228.22V70.9553C228.22 81.6663 227.26 89.8168 225.339 95.407C223.461 100.997 219.64 105.734 213.878 109.617C208.158 113.5 200.816 115.442 191.852 115.442C182.376 115.442 175.034 114.162 169.826 111.601C164.619 109.041 160.585 105.307 157.725 100.4C154.908 95.4497 153.243 89.3474 152.731 82.093L180.455 78.3164C180.498 82.4557 180.861 85.5282 181.544 87.5338C182.227 89.5395 183.379 91.161 185.001 92.3986C186.111 93.2094 187.69 93.6148 189.739 93.6148C192.983 93.6148 195.352 92.4199 196.846 90.0302C198.383 87.5978 199.151 83.5226 199.151 77.8044V19.9396Z" fill="black"/>
<path d="M15.8789 47.4559H25.8664V59.6667L36.3389 47.4559H49.6114L37.8381 59.6446L50.1405 79.7681H37.8381L31.0255 66.4774L25.8664 71.8774V79.7681H15.8789V47.4559Z" fill="#C4C4C4"/>
<path d="M74.3626 79.7681H65.9846V75.9771C64.7353 77.5346 63.4712 78.644 62.1925 79.3053C60.9284 79.9665 59.3704 80.2971 57.5185 80.2971C55.0491 80.2971 53.109 79.5624 51.6979 78.093C50.3016 76.6089 49.6034 74.3313 49.6034 71.2603V56.3605H58.6208V69.2325C58.6208 70.7019 58.8927 71.7452 59.4366 72.3623C59.9804 72.9795 60.7447 73.2881 61.7295 73.2881C62.8025 73.2881 63.677 72.8766 64.3531 72.0538C65.044 71.2309 65.3894 69.7541 65.3894 67.6235V56.3605H74.3626V79.7681Z" fill="#C4C4C4"/>
<path d="M76.2402 47.4559H85.3017V58.6528C86.1983 57.7124 87.2124 57.0071 88.3442 56.5369C89.4907 56.0666 90.7547 55.8315 92.1364 55.8315C94.9878 55.8315 97.3469 56.8601 99.2136 58.9173C101.08 60.9598 102.014 63.8986 102.014 67.7337C102.014 70.2905 101.587 72.546 100.735 74.5003C99.8823 76.4399 98.6991 77.8946 97.1852 78.8645C95.686 79.8196 94.0177 80.2971 92.1805 80.2971C90.6077 80.2971 89.1673 79.9592 87.8592 79.2832C86.8744 78.7542 85.8014 77.7624 84.6403 76.3077V79.7681H76.2402V47.4559ZM85.2355 67.9982C85.2355 70.0113 85.6103 71.4733 86.3599 72.3844C87.1243 73.2807 88.087 73.7289 89.2482 73.7289C90.3211 73.7289 91.2177 73.2881 91.9379 72.4064C92.6728 71.5101 93.0403 70.0113 93.0403 67.91C93.0403 66.0586 92.6802 64.6994 91.96 63.8324C91.2545 62.9655 90.3946 62.532 89.3804 62.532C88.1605 62.532 87.161 62.9875 86.382 63.8986C85.6177 64.7949 85.2355 66.1614 85.2355 67.9982Z" fill="#C4C4C4"/>
<path d="M130.049 70.2905H112.058C112.22 71.7305 112.61 72.8032 113.227 73.5085C114.094 74.5224 115.226 75.0293 116.622 75.0293C117.504 75.0293 118.342 74.8089 119.136 74.3681C119.621 74.0889 120.142 73.5966 120.701 72.8913L129.542 73.7068C128.19 76.0579 126.558 77.7477 124.647 78.7763C122.737 79.7902 119.995 80.2971 116.424 80.2971C113.322 80.2971 110.882 79.8636 109.104 78.9967C107.326 78.1151 105.848 76.7265 104.672 74.8309C103.511 72.9207 102.931 70.6799 102.931 68.1084C102.931 64.4496 104.099 61.4887 106.436 59.2259C108.788 56.963 112.029 55.8315 116.159 55.8315C119.51 55.8315 122.156 56.3385 124.096 57.3524C126.036 58.3663 127.514 59.8357 128.528 61.7606C129.542 63.6855 130.049 66.1908 130.049 69.2766V70.2905ZM120.921 65.9925C120.745 64.2586 120.275 63.0169 119.51 62.2675C118.761 61.5181 117.769 61.1434 116.534 61.1434C115.108 61.1434 113.969 61.7092 113.117 62.8406C112.573 63.5459 112.227 64.5965 112.08 65.9925H120.921Z" fill="#C4C4C4"/>
<path d="M131.099 56.3605H139.499V60.1957C140.308 58.5352 141.138 57.3965 141.991 56.7793C142.858 56.1475 143.924 55.8315 145.188 55.8315C146.51 55.8315 147.958 56.243 149.531 57.0658L146.753 63.4577C145.695 63.0169 144.857 62.7965 144.24 62.7965C143.064 62.7965 142.152 63.2814 141.506 64.2512C140.58 65.6178 140.117 68.1745 140.117 71.9215V79.7681H131.099V56.3605Z" fill="#C4C4C4"/>
<path d="M150.171 56.3605H158.527V60.1736C159.777 58.6161 161.041 57.5067 162.319 56.8454C163.598 56.1695 165.156 55.8315 166.993 55.8315C169.477 55.8315 171.418 56.5736 172.814 58.0577C174.225 59.5271 174.93 61.8047 174.93 64.8904V79.7681H165.913V66.8962C165.913 65.4267 165.641 64.3908 165.097 63.7884C164.553 63.1712 163.789 62.8626 162.804 62.8626C161.717 62.8626 160.835 63.2741 160.159 64.0969C159.483 64.9198 159.145 66.3966 159.145 68.5272V79.7681H150.171V56.3605Z" fill="#C4C4C4"/>
<path d="M203.121 70.2905H185.13C185.292 71.7305 185.682 72.8032 186.299 73.5085C187.166 74.5224 188.298 75.0293 189.694 75.0293C190.576 75.0293 191.414 74.8089 192.208 74.3681C192.693 74.0889 193.214 73.5966 193.773 72.8913L202.614 73.7068C201.262 76.0579 199.63 77.7477 197.719 78.7763C195.809 79.7902 193.067 80.2971 189.496 80.2971C186.394 80.2971 183.955 79.8636 182.176 78.9967C180.398 78.1151 178.92 76.7265 177.745 74.8309C176.583 72.9207 176.003 70.6799 176.003 68.1084C176.003 64.4496 177.171 61.4887 179.508 59.2259C181.86 56.963 185.101 55.8315 189.231 55.8315C192.582 55.8315 195.228 56.3385 197.168 57.3524C199.108 58.3663 200.586 59.8357 201.6 61.7606C202.614 63.6855 203.121 66.1908 203.121 69.2766V70.2905ZM193.993 65.9925C193.817 64.2586 193.347 63.0169 192.582 62.2675C191.833 61.5181 190.841 61.1434 189.606 61.1434C188.18 61.1434 187.041 61.7092 186.189 62.8406C185.645 63.5459 185.299 64.5965 185.152 65.9925H193.993Z" fill="#C4C4C4"/>
<path d="M215.36 47.4559V56.3605H220.299V62.9067H215.36V71.2162C215.36 72.2154 215.456 72.8766 215.647 73.1999C215.941 73.6995 216.455 73.9493 217.19 73.9493C217.851 73.9493 218.777 73.7583 219.968 73.3762L220.629 79.5698C218.41 80.0547 216.337 80.2971 214.412 80.2971C212.178 80.2971 210.532 80.0106 209.473 79.4375C208.415 78.8645 207.629 77.9975 207.114 76.8367C206.615 75.6611 206.365 73.7656 206.365 71.1501V62.9067H203.058V56.3605H206.365V52.0625L215.36 47.4559Z" fill="#C4C4C4"/>
<path d="M248.334 70.2905H230.343C230.505 71.7305 230.895 72.8032 231.512 73.5085C232.379 74.5224 233.511 75.0293 234.907 75.0293C235.789 75.0293 236.627 74.8089 237.421 74.3681C237.906 74.0889 238.427 73.5966 238.986 72.8913L247.827 73.7068C246.475 76.0579 244.843 77.7477 242.932 78.7763C241.022 79.7902 238.28 80.2971 234.709 80.2971C231.607 80.2971 229.168 79.8636 227.389 78.9967C225.611 78.1151 224.133 76.7265 222.958 74.8309C221.796 72.9207 221.216 70.6799 221.216 68.1084C221.216 64.4496 222.384 61.4887 224.721 59.2259C227.073 56.963 230.314 55.8315 234.444 55.8315C237.795 55.8315 240.441 56.3385 242.381 57.3524C244.321 58.3663 245.799 59.8357 246.813 61.7606C247.827 63.6855 248.334 66.1908 248.334 69.2766V70.2905ZM239.206 65.9925C239.03 64.2586 238.56 63.0169 237.795 62.2675C237.046 61.5181 236.054 61.1434 234.819 61.1434C233.393 61.1434 232.254 61.7092 231.402 62.8406C230.858 63.5459 230.512 64.5965 230.365 65.9925H239.206Z" fill="#C4C4C4"/>
<path d="M248.612 73.2881L257.519 72.4505C257.886 73.5085 258.401 74.2652 259.062 74.7207C259.724 75.1762 260.606 75.404 261.708 75.404C262.913 75.404 263.847 75.1469 264.508 74.6326C265.022 74.2505 265.28 73.773 265.28 73.1999C265.28 72.5534 264.942 72.0538 264.266 71.7011C263.78 71.4513 262.494 71.1427 260.407 70.7754C257.291 70.2317 255.123 69.7321 253.903 69.2766C252.698 68.8064 251.676 68.0202 250.839 66.9182C250.016 65.8161 249.604 64.5598 249.604 63.1492C249.604 61.6063 250.052 60.2765 250.949 59.1597C251.845 58.043 253.08 57.2128 254.653 56.6691C256.226 56.1107 258.335 55.8315 260.98 55.8315C263.773 55.8315 265.831 56.0446 267.154 56.4707C268.491 56.8969 269.601 57.5581 270.483 58.4544C271.379 59.3508 272.122 60.563 272.71 62.0912L264.199 62.9288C263.979 62.1794 263.611 61.6283 263.097 61.2757C262.391 60.8055 261.539 60.5704 260.54 60.5704C259.525 60.5704 258.783 60.754 258.313 61.1214C257.857 61.474 257.629 61.9075 257.629 62.4218C257.629 62.9949 257.923 63.4284 258.511 63.7222C259.099 64.0161 260.378 64.2806 262.347 64.5157C265.331 64.8537 267.551 65.3239 269.006 65.9263C270.461 66.5288 271.571 67.3884 272.335 68.5051C273.114 69.6219 273.503 70.8488 273.503 72.186C273.503 73.5379 273.092 74.853 272.269 76.1314C271.46 77.4097 270.174 78.431 268.41 79.1951C266.661 79.9445 264.273 80.3192 261.245 80.3192C256.968 80.3192 253.918 79.7094 252.095 78.4898C250.287 77.2701 249.126 75.5362 248.612 73.2881Z" fill="#C4C4C4"/>
</svg>
